HIERARCHY
ROOT Joint1
{
	OFFSET 0.000000 0.000000 0.000000
	CHANNELS 6 Xposition Yposition Zposition Xrotation Yrotation Zrotation
	JOINT Joint2
	{
		OFFSET -0.000000 0.000000 1.456275
		CHANNELS 6 Xposition Yposition Zposition Xrotation Yrotation Zrotation
		JOINT Joint3
		{
			OFFSET -0.000000 0.000002 1.471446
			CHANNELS 6 Xposition Yposition Zposition Xrotation Yrotation Zrotation
			JOINT Joint4
			{
				OFFSET 0.625745 0.000000 0.917755
				CHANNELS 6 Xposition Yposition Zposition Xrotation Yrotation Zrotation
				JOINT Joint5
				{
					OFFSET -0.629534 0.000001 0.940221
					CHANNELS 6 Xposition Yposition Zposition Xrotation Yrotation Zrotation
					JOINT Joint6
					{
						OFFSET -0.000001 0.113772 1.960660
						CHANNELS 6 Xposition Yposition Zposition Xrotation Yrotation Zrotation
						JOINT Joint7
						{
							OFFSET -0.669733 -0.113771 0.388340
							CHANNELS 6 Xposition Yposition Zposition Xrotation Yrotation Zrotation
							End Site
							{
								OFFSET 0.005509 0.005509 0.438980
							}
						}
					}
				}
			}
		}
	}
}
MOTION
Frames: 12
Frame Time: 0.041667
0.000000 0.000000 0.000000 -0.000000 1.019410 -36.440886 -0.000000 0.000000 1.456275 -0.000001 21.821382 -0.000002 -0.000001 0.000002 1.471446 -0.000003 -1.133455 58.023864 0.625745 0.000000 0.917755 0.000006 144.504345 0.000004 -0.629534 0.000001 0.940221 0.000001 1.709737 61.039939 -0.000001 0.113772 1.960661 -88.303862 97.943383 0.000017 -0.669733 -0.113771 0.388340 -0.629031 3.563307 130.673362 
0.000000 0.000000 0.000000 -0.000000 1.019410 -37.842062 -0.000000 0.000000 1.456275 -0.000000 24.390991 -0.000001 -0.000001 0.000002 1.471446 -0.000002 -1.133455 60.256701 0.625745 0.000000 0.917755 0.000003 144.868913 -0.000001 -0.629534 0.000001 0.940221 0.000003 1.709738 63.388459 -0.000001 0.113772 1.960661 -88.303848 98.249928 0.000017 -0.669733 -0.113771 0.388340 -0.626109 3.563083 130.508400 
0.000000 0.000000 0.000000 -0.000000 1.019410 -39.243180 -0.000000 0.000000 1.456275 0.000001 26.960497 0.000001 -0.000001 0.000002 1.471446 -0.000001 -1.133454 62.489442 0.625744 0.000000 0.917755 0.000003 145.233454 0.000001 -0.629534 0.000001 0.940221 -0.000002 1.709736 65.736896 -0.000001 0.113772 1.960660 -88.303855 98.556474 0.000004 -0.669733 -0.113771 0.388340 -0.623188 3.562845 130.343437 
0.000000 0.000000 0.000000 -0.000000 1.019410 -40.240073 -0.000000 0.000000 1.456275 0.000002 28.788680 -0.000002 -0.000000 0.000002 1.471446 -0.000003 -1.133455 64.078041 0.625744 0.000000 0.917755 0.000004 145.492824 0.000002 -0.629534 0.000001 0.940221 -0.000003 1.709735 67.407799 -0.000001 0.113772 1.960660 -88.303855 98.774569 0.000007 -0.669733 -0.113771 0.388341 -0.621113 3.562672 130.226067 
0.000000 0.000000 0.000000 -0.000000 1.019410 -41.049973 -0.000000 0.000000 1.456275 0.000000 30.273946 0.000002 -0.000001 0.000002 1.471446 -0.000002 -1.133457 65.368640 0.625744 0.000000 0.917755 -0.000001 145.703535 -0.000001 -0.629534 0.000001 0.940221 -0.000002 1.709739 68.765272 -0.000001 0.113772 1.960660 -88.303841 98.951758 -0.000001 -0.669733 -0.113771 0.388340 -0.619426 3.562533 130.130731 
0.000000 0.000000 0.000000 -0.000000 1.019410 -42.045483 -0.000000 0.000000 1.456275 0.000001 32.099604 -0.000002 -0.000000 0.000002 1.471445 -0.000003 -1.133456 66.955033 0.625745 0.000000 0.917755 0.000000 145.962563 -0.000002 -0.629533 0.000001 0.940221 -0.000002 1.709735 70.433867 -0.000001 0.113772 1.960660 -88.303848 99.169559 0.000016 -0.669733 -0.113771 0.388340 -0.617349 3.562357 130.013539 
0.000000 0.000000 0.000000 -0.000000 1.019410 -43.444702 -0.000000 0.000000 1.456275 0.000003 34.665635 0.000003 -0.000000 0.000002 1.471446 -0.000004 -1.133453 69.184762 0.625744 0.000000 0.917755 0.000002 146.326599 0.000000 -0.629534 0.000001 0.940221 -0.000001 1.709733 72.779129 -0.000001 0.113772 1.960661 -88.303855 99.475681 0.000021 -0.669733 -0.113771 0.388340 -0.614436 3.562097 129.848795 
0.000000 0.000000 0.000000 -0.000000 1.019410 -44.847773 -0.000000 0.000000 1.456275 -0.000000 37.238714 -0.000001 -0.000000 0.000002 1.471446 -0.000001 -1.133457 71.420624 0.625745 0.000000 0.917755 0.000003 146.691659 -0.000002 -0.629534 0.000001 0.940221 -0.000001 1.709737 75.130831 -0.000001 0.113772 1.960661 -88.303862 99.782650 -0.000019 -0.669733 -0.113771 0.388340 -0.611512 3.561825 129.683613 
0.000000 0.000000 0.000000 -0.000000 1.019410 -45.852696 -0.000000 0.000000 1.456275 -0.000000 39.081622 -0.000002 -0.000000 0.000002 1.471446 -0.000003 -1.133456 73.022010 0.625745 0.000000 0.917755 0.000005 146.953118 0.000002 -0.629533 0.000001 0.940221 -0.000002 1.709737 76.815183 -0.000001 0.113772 1.960661 -88.303868 100.002507 0.000000 -0.669733 -0.113771 0.388340 -0.609416 3.561634 129.565314 
0.000000 0.000000 0.000000 -0.000000 1.019410 -46.666868 -0.000000 -0.000000 1.456275 -0.000000 40.574732 -0.000001 -0.000000 0.000002 1.471446 -0.000002 -1.133453 74.319432 0.625745 0.000000 0.917755 0.000004 147.164950 -0.000002 -0.629534 0.000001 0.940221 -0.000006 1.709736 78.179834 -0.000001 0.113772 1.960661 -88.303862 100.180632 -0.000017 -0.669733 -0.113771 0.388340 -0.607724 3.561472 129.469460 
0.000000 0.000000 0.000000 -0.000000 1.019410 -47.650070 -0.000000 0.000000 1.456275 0.000001 42.377820 0.000003 -0.000000 0.000002 1.471446 -0.000007 -1.133457 75.886209 0.625744 0.000001 0.917755 -0.000004 147.420754 0.000000 -0.629534 0.000001 0.940221 -0.000004 1.709735 79.827795 -0.000001 0.113772 1.960660 -88.303875 100.395735 0.000010 -0.669733 -0.113771 0.388340 -0.605680 3.561269 129.353702 
0.000000 0.000000 0.000000 -0.000000 1.019410 -49.023290 -0.000000 -0.000000 1.456275 -0.000001 44.896158 -0.000000 -0.000000 0.000002 1.471446 -0.000003 -1.133451 78.074492 0.625745 0.000000 0.917755 -0.000001 147.778041 -0.000001 -0.629534 0.000001 0.940221 -0.000005 1.709736 82.129459 -0.000001 0.113772 1.960661 -88.303875 100.696168 0.000002 -0.669733 -0.113771 0.388340 -0.602820 3.560986 129.192031 
